<svg xmlns="http://www.w3.org/2000/svg" viewBox="0 0 1117.92 428.29"><defs><style>.cls-1{fill:#f6e0d8;}.cls-2{fill:#ffc979;}.cls-3{fill:none;stroke:#ffc979;stroke-miterlimit:10;stroke-width:10px;}.cls-4{fill:#fefefe;}.cls-5{fill:#ebecec;}.cls-6{fill:#d0e2ec;}.cls-7{fill:#c3ddeb;}</style></defs><g id="Calque_2" data-name="Calque 2"><g id="Calque_1-2" data-name="Calque 1"><path class="cls-1" d="M155.21,180.07q0-18.84,0-37.66l1.05-.38-.07.4c1.46,1.38,1.56,3.21,1.58,5q.17,13.78,0,27.57c0,1.82-.16,3.63-1.53,5.06Z"/><path class="cls-2" d="M62.83,52.1V2.6h9.69V23H91V2.6h9.72V52.1H91V31.55H72.52V52.1Z"/><path class="cls-2" d="M123.81,52.1V11.18H111.3V2.6h34.8v8.58H133.53V52.1Z"/><path class="cls-2" d="M154.31,52.1l4.92-49.5h10.35l11.79,31,11.82-31h10.35l4.92,49.5h-9.72l-3.09-32L184.37,50.87h-6L167.09,20.06,164,52.1Z"/><path class="cls-2" d="M222.31,52.1V2.6H232v41h17.88V52.1Z"/><path class="cls-2" d="M159.08,358.26c24.3-6.66,48.6-13.37,72.93-19.92,2.71-.73,2.65-2.39,2.83-4.41,2.22-24.6,4.54-49.19,6.72-73.79,1.14-12.87,2.06-25.76,3.09-38.64-27.62,0-55.23-1.23-82.85-1.4H150.17c-12-.1-23.94,0-35.91,0-2,0-4,.41-5.73-1.12-1.2-1.31-1.24-3-1.46-4.63-.84-6.21-1-12.48-1.7-18.71-.36-3.13-.32-6.33-1-9.41a3.58,3.58,0,0,1,3.59-4.44h.2c15.9-.14,31.8-.17,47.7-.22a4.43,4.43,0,0,0,1-1.71v1.71c10.31.06,20.62.15,30.94.17q28.2,0,56.4,0c2,0,4.34.87,4.61-2.74.78-10.58,1.84-21.15,2.87-31.72.24-2.42-.18-3.58-3.05-3.57q-45.91.23-91.83.24v1.47a4,4,0,0,0-1-1.49c-30.45-.06-60.89-.05-91.33-.24-3.55,0-3.72,1.47-3.4,4.18.67,5.77,1.23,11.55,1.75,17.33q4,45.12,8,90.25c.22,2.6,1.14,3.36,3.63,3.34,27.12-.1,105.24-.57,132.35-.62l-3,55-48,6c-12.31-3.37-25.55-6.57-37.91-9.81-2.74-.71-4.17-1.61-4.32-4.81-.35-7.45-1.31-14.86-1.85-22.3-.26-3.5-1.41-5-6.08-4.48a125.82,125.82,0,0,1-26.53.14c-4.92-.53-6.44-.11-6.09,3.52q2.57,26.72,4.86,53.48c.2,2.27,1.22,3.05,3.26,3.58,6.26,1.62,12.46,3.49,18.7,5.19q26.86,7.33,53.74,14.61Z"/><path class="cls-3" d="M156.3,78.68q73.14,0,146.29-.09c4.05,0,5.47.74,5.06,5.14-3.06,33.06-5.89,66.14-8.78,99.22q-3.69,42.18-7.35,84.36-4.31,49.11-8.65,98.23c-.55,6.29-1.14,12.58-1.45,18.88-.13,2.79-1.28,4-3.9,4.77Q218.6,406,159.74,423a9.41,9.41,0,0,1-5.36-.16Q94.19,406,34,389.25c-2.91-.81-3.87-2.19-4.11-5.12q-6.49-81.67-13.2-163.34-5.67-69-11.59-138c-.42-4.77,2.11-4.13,5-4.13Z"/><path class="cls-2" d="M931.49,53.09a16.82,16.82,0,0,1-11.88-4.68l3.24-8q3.69,3.42,7.08,3.42a5.94,5.94,0,0,0,4.86-2.16,9.16,9.16,0,0,0,1.77-5.94V2.63h9.72V38.21c0,4.72-1.32,8.38-3.93,11S936.11,53.09,931.49,53.09Z"/><path class="cls-2" d="M984.11,53.09a25.73,25.73,0,0,1-6.33-.75,25.23,25.23,0,0,1-5.21-1.92,26.93,26.93,0,0,1-3.94-2.4A28.84,28.84,0,0,1,966,45.86l5-8q1,.87,2.37,2a26.77,26.77,0,0,0,3.09,2.07,18.17,18.17,0,0,0,3.7,1.62,14,14,0,0,0,4.25.63,9.89,9.89,0,0,0,3.7-.65,5.63,5.63,0,0,0,2.55-2,5.47,5.47,0,0,0,1-3.27,5.67,5.67,0,0,0-.77-3,7.57,7.57,0,0,0-2.22-2.27,24,24,0,0,0-3.57-2q-2.12-1-4.81-2.14a29.22,29.22,0,0,1-3.83-2.06,16.1,16.1,0,0,1-3.22-2.68A12.08,12.08,0,0,1,971,20.61a10.92,10.92,0,0,1-.82-4.33,13.49,13.49,0,0,1,1.13-5.46,14.62,14.62,0,0,1,3.26-4.65,15.82,15.82,0,0,1,5-3.24,16.93,16.93,0,0,1,6.49-1.2,20.9,20.9,0,0,1,5.41.72,27.13,27.13,0,0,1,5,1.89,19.5,19.5,0,0,1,4,2.55l-4,7.62a18.3,18.3,0,0,0-2.93-2A17.23,17.23,0,0,0,990,11.09a13.27,13.27,0,0,0-3.74-.54,8,8,0,0,0-3.61.75,5.45,5.45,0,0,0-2.26,2,5.06,5.06,0,0,0-.79,2.78,4.05,4.05,0,0,0,.52,2.11,4.69,4.69,0,0,0,1.47,1.55,13.58,13.58,0,0,0,2.3,1.24c.91.39,1.9.81,3,1.25,2.31,1,4.42,2,6.3,2.91A23.94,23.94,0,0,1,998,28.32a12,12,0,0,1,3.07,4.08,13.38,13.38,0,0,1,1.07,5.6,13.76,13.76,0,0,1-8.59,13.3A23.32,23.32,0,0,1,984.11,53.09Z"/><path class="cls-3" d="M961,78.71c48.6,0,97.2.06,145.81-.09,4.67,0,6.57.45,6,6-3.59,37-6.76,74.05-10,111.09-2.48,28.11-4.86,56.23-7.38,84.34q-4.22,47.11-8.6,94.23c-.34,3.8-1,7.6-.94,11.4,0,3-1.57,3.88-4.05,4.56q-59.08,16.26-118.14,32.65a11.13,11.13,0,0,1-6.32-.25Q899,406.51,840.65,390.48c-3.25-.89-4.46-2.45-4.74-5.77q-6-70-12.25-139.9-6.45-72.67-13-145.34c-.48-5.29-.88-10.59-1.67-15.84-.61-4,.68-5,4.67-5Q887.34,78.83,961,78.71Z"/><path class="cls-4" d="M964.79,199.47c0-17.6.1-35.21-.07-52.81,0-3.48.93-4.48,4.44-4.46q39.93.21,79.87,0c3.29,0,4.65.37,4.1,4.34-1.21,8.86-1.91,17.82-2.45,26.75-.21,3.56-.8,5.28-5,5.28-13.8,0-27.6.64-41.41.73-3.93,0-5.57,1-5.6,5.23-.09,9.95-.5,19.92-1.2,29.85-.29,4.16,1.19,4.94,5,4.88,13.31-.2,26.62,0,39.93-.14,3.22,0,4.29.68,4,4.17-2.73,28.9-5.26,57.83-7.85,86.75-.68,7.6-1.42,15.19-2,22.8-.17,2.29-.91,3.5-3.31,4.15q-32.69,8.91-65.28,18.09c-2.68.76-3.15-.09-3.13-2.47.06-11,.15-21.93,0-32.89-.06-3.14,1.52-3.85,4-4.47,12.25-3,24.44-6.29,36.73-9.15,3.09-.72,3.9-2.12,4.12-5q1.65-21.59,3.73-43.14c.34-3.45-.74-3.67-3.8-3.44-13.43,1-26.89,1.62-40.32,2.61-3.58.26-4.5-.88-4.48-4.35C964.88,235,964.79,217.24,964.79,199.47Z"/><path class="cls-2" d="M946.76,248.65c0,34.56-.07,69.12.09,103.68,0,4.12-.82,5.07-5.38,3.87q-33.68-8.93-67.53-17.27c-3.54-.88-5-2.21-5.26-5.72-1.47-17.21-3.24-34.39-5.09-51.57-.42-3.88.59-5.24,5-4.29a170.08,170.08,0,0,0,16.83,2.76c3.87.42,5.41,2.05,5.57,5.48.21,4.56.84,9.11,1,13.67.1,2.61,1.1,3.89,4,4.51,5.72,1.24,11.37,2.8,17,4.4,2.81.8,4.09.49,4-2.57-.68-18.12-1.21-36.23-1.87-54.34-.41-11.17-1-22.33-1.44-33.5-.89-24.38-1.63-48.76-2.63-73.13-.16-3.7.69-5.06,5-4.89,8.28.34,16.61.45,24.87,0,5.27-.3,5.91,1.59,5.89,5.76C946.69,179.86,946.76,214.25,946.76,248.65Z"/><path class="cls-2" d="M1056,140.68H976.58a4.14,4.14,0,0,0-4.14,4.14l-1,108.86c0,2.19,2,4,5,3.81l43.22-2.06-3.24,45.25c-.14,2.33-1.37,4.4-3.64,4.95L974.39,315a3.8,3.8,0,0,0-2.91,3.74l0,35.58a1.79,1.79,0,0,0,2.29,1.73L1042,337.09a2.2,2.2,0,0,0,1.61-1.93l10.36-116h-49l2-39,45.5-.89a6,6,0,0,0,5.86-5.6l1.85-28.54A4.19,4.19,0,0,0,1056,140.68Z"/><path class="cls-5" d="M474.68,255.84c-1.42-10.35-2.62-20.74-4.39-31-.59-3.44.52-4.6,3.36-5.82q39.12-16.8,78.17-33.81c1.67-.72,3.34-1.46,5.57-2.44-2-1.14-3.78-.72-5.41-.72-26.45,0-52.91-.06-79.36.1-3.51,0-4.82-.74-5.19-4.51-1-10.06-2.61-20.07-3.95-30.1-.11-.76-.59-1.61.28-2.27,1.37-.9,2.91-.49,4.37-.49q43.9,0,87.81,0c5.59,0,6,.31,6,5.85q.09,50.05,0,100.1c0,1.81.14,3.69-1.11,5.25-1.07.65-2.27.44-3.41.44H478.06C476.92,256.37,475.71,256.64,474.68,255.84Z"/><path class="cls-5" d="M558.44,356.69q-33.84-9.19-67.68-18.42c-9.48-2.59-9.31-2.66-10.07-12.34-1.14-14.71-2.38-29.42-3.88-44.1-.42-4.1.41-5.48,4.8-5.31,9.3.35,18.62.25,27.92,0,3.37-.08,4.72,1,5,4.34.55,6.77,1.52,13.51,2.14,20.27.26,2.82,1.07,4.32,4.27,4.91,12.88,2.37,25.69,5.13,38.53,7.74a3,3,0,0,1,2.07,1.91c.94,12.53.35,25.07.3,37.6C561.82,355.2,561.61,357.63,558.44,356.69Z"/><path class="cls-6" d="M561.55,255.94h-1c0-35.06-.08-70.12.09-105.18,0-4.35-1.07-5.61-5.53-5.59-30.46.19-60.92.09-91.38.07,1.59-1.35,3.5-.67,5.25-.68q43.55-.08,87.1,0c1.82,0,3.63-.16,5.45-.25q43.76.09,87.51.23c1.71,0,3.64-.81,5.16.76-2.39,2.12-5.34,1.53-8.1,1.54q-37.41.07-74.83,0c-8.08,0-8.1,0-8.11,7.9q0,46.31,0,92.61C563.16,250.28,563.69,253.38,561.55,255.94Z"/><path class="cls-7" d="M560.58,314.7l1,0c2.06,2.18,1.47,4.93,1.54,7.5.31,11.49-.57,23,.6,34.49l-2.17,1.08c-1.07-.3-2.29-.15-3.11-1.12,3-.57,2.09-3,2.1-4.77C560.6,339.51,560.58,327.1,560.58,314.7Z"/><path class="cls-4" d="M563.72,356.73c-3-.55-2.11-2.94-2.12-4.75-.06-12.41,0-24.83,0-37.24,12-2.34,24.07-4.77,36.14-6.94,2.89-.52,4.35-1.49,4.63-4.59q1.92-21.3,4.2-42.56c.37-3.43-.48-4.59-4.14-4.56-13.61.14-27.24-.07-40.86-.15q0-52,0-104.1c0-6.53,0-6.53,6.34-6.53l86.32-.05c.1,11.29.12,22.58.36,33.86.07,3.14-2.26,3.27-4.13,4Q611.74,199,573,214.87a11.08,11.08,0,0,0-4.36,2.78h4.6c23.31,0,46.62.07,69.92-.07,3.49,0,4.58.79,4.24,4.42q-5,54.08-9.68,108.17c-.19,2.16-.11,3.92-3,4.79C611,342.08,587.37,349.44,563.72,356.73Z"/><path class="cls-3" d="M560.22,78.68q73.14,0,146.29-.09c4,0,5.46.74,5.06,5.14-3.07,33.06-5.9,66.14-8.79,99.22q-3.69,42.18-7.34,84.36-4.31,49.11-8.65,98.23c-.55,6.29-1.15,12.58-1.45,18.88-.13,2.79-1.28,4-3.9,4.77Q622.52,406,563.66,423a9.41,9.41,0,0,1-5.36-.16Q498.1,406,437.86,389.25c-2.91-.81-3.87-2.19-4.1-5.12q-6.51-81.67-13.21-163.34-5.66-69-11.59-138c-.42-4.77,2.11-4.13,5-4.13Z"/><path class="cls-2" d="M464.38,153.5a7.66,7.66,0,0,1,7.57-8.88l175.89-.07a6.91,6.91,0,0,1,6.84,7.19l-.88,22.61a9.09,9.09,0,0,1-5.65,8.65L568.6,215.54l78.36.08-9.58,115a7.16,7.16,0,0,1-5.29,6.32L562,357.62,486.69,338a8.19,8.19,0,0,1-6.21-7.27l-4.85-47.59a5.78,5.78,0,0,1,5.9-6.37l26.33.68a7,7,0,0,1,6.78,6.22L517,304.62l44,10,38.65-6.82a3.82,3.82,0,0,0,3.61-3.52l3.37-43.86a4.45,4.45,0,0,0-4.44-4.8H475L470.88,227a7,7,0,0,1,4.12-7.62l82-35.8-81.34-.89A7.86,7.86,0,0,1,468,176Z"/><path class="cls-2" d="M514.14,51.36a28,28,0,0,1-10.52-2,27.31,27.31,0,0,1-8.67-5.5,26,26,0,0,1-5.85-8.18,23.84,23.84,0,0,1-2.11-10,24.07,24.07,0,0,1,2.11-10A26,26,0,0,1,495,7.48,27.67,27.67,0,0,1,514.1,0a29,29,0,0,1,8.68,1.29,24.33,24.33,0,0,1,7.05,3.39l-4.2,8.25a15,15,0,0,0-4.89-2.49,20.1,20.1,0,0,0-6-.9,18.75,18.75,0,0,0-6.83,1.21,16.67,16.67,0,0,0-5.46,3.42,15.84,15.84,0,0,0-3.61,5.15,15.65,15.65,0,0,0-1.29,6.36A15.65,15.65,0,0,0,498.81,32a15.84,15.84,0,0,0,3.61,5.15,16.65,16.65,0,0,0,5.46,3.41,18.55,18.55,0,0,0,6.83,1.22,20.1,20.1,0,0,0,6-.9,15,15,0,0,0,4.89-2.49l4.2,8.25A25.32,25.32,0,0,1,522.91,50,28.11,28.11,0,0,1,514.14,51.36Z"/><path class="cls-2" d="M562.62,51.36a25.42,25.42,0,0,1-11.54-2.67,26.93,26.93,0,0,1-3.94-2.4,27.2,27.2,0,0,1-2.61-2.16l5-8q1,.87,2.37,1.95A26.77,26.77,0,0,0,555,40.11a18.42,18.42,0,0,0,3.7,1.62,14,14,0,0,0,4.25.63,9.7,9.7,0,0,0,3.7-.65,5.57,5.57,0,0,0,2.55-2,5.47,5.47,0,0,0,1-3.27,5.67,5.67,0,0,0-.77-3,7.69,7.69,0,0,0-2.22-2.27,24.93,24.93,0,0,0-3.57-2c-1.41-.64-3-1.36-4.81-2.14A28.68,28.68,0,0,1,554.92,25a15.77,15.77,0,0,1-3.22-2.68,12.08,12.08,0,0,1-2.24-3.47,10.92,10.92,0,0,1-.82-4.33,13.33,13.33,0,0,1,1.14-5.46A14.44,14.44,0,0,1,553,4.44a15.82,15.82,0,0,1,5-3.24,17,17,0,0,1,6.5-1.2,20.88,20.88,0,0,1,5.4.72,27.13,27.13,0,0,1,5,1.89,19.5,19.5,0,0,1,4,2.55l-4,7.62a18.3,18.3,0,0,0-2.93-2,17.23,17.23,0,0,0-3.48-1.44,13.2,13.2,0,0,0-3.73-.54,8,8,0,0,0-3.62.75,5.58,5.58,0,0,0-2.26,2,5.16,5.16,0,0,0-.78,2.78,4.09,4.09,0,0,0,.51,2.12A4.76,4.76,0,0,0,560.13,18a14,14,0,0,0,2.31,1.25c.9.38,1.89.8,3,1.24,2.31,1,4.42,2,6.3,2.91a23.66,23.66,0,0,1,4.83,3.19,12.11,12.11,0,0,1,3.07,4.08,13.42,13.42,0,0,1,1.07,5.6,13.77,13.77,0,0,1-8.58,13.3A23.37,23.37,0,0,1,562.62,51.36Z"/><path class="cls-2" d="M615.5,51.36A25.33,25.33,0,0,1,604,48.69a27.62,27.62,0,0,1-4-2.4,27.2,27.2,0,0,1-2.61-2.16l5-8q1,.87,2.37,1.95a26.77,26.77,0,0,0,3.09,2.07,18.51,18.51,0,0,0,3.71,1.62,14,14,0,0,0,4.24.63,9.71,9.71,0,0,0,3.71-.65,5.57,5.57,0,0,0,2.55-2,5.47,5.47,0,0,0,.94-3.27,5.67,5.67,0,0,0-.76-3A7.69,7.69,0,0,0,620,31.21a24.93,24.93,0,0,0-3.57-2c-1.41-.64-3-1.36-4.82-2.14A28.56,28.56,0,0,1,607.81,25a15.83,15.83,0,0,1-3.23-2.68,12.05,12.05,0,0,1-2.23-3.47,10.93,10.93,0,0,1-.83-4.33,13.5,13.5,0,0,1,1.14-5.46,14.47,14.47,0,0,1,3.26-4.65,15.82,15.82,0,0,1,5-3.24A16.93,16.93,0,0,1,617.45,0a20.88,20.88,0,0,1,5.4.72,27,27,0,0,1,5.06,1.89,19.41,19.41,0,0,1,4,2.55l-4,7.62a18.2,18.2,0,0,0-2.92-2,17.23,17.23,0,0,0-3.48-1.44,13.27,13.27,0,0,0-3.74-.54,7.93,7.93,0,0,0-3.61.75,5.62,5.62,0,0,0-2.27,2,5.16,5.16,0,0,0-.78,2.78,4.19,4.19,0,0,0,.51,2.12A4.87,4.87,0,0,0,613,18a14.45,14.45,0,0,0,2.31,1.25c.9.38,1.89.8,3,1.24q3.48,1.47,6.3,2.91a23.66,23.66,0,0,1,4.83,3.19,12.14,12.14,0,0,1,3.08,4.08,13.42,13.42,0,0,1,1.06,5.6A13.74,13.74,0,0,1,625,49.57,23.34,23.34,0,0,1,615.5,51.36Z"/><path class="cls-2" d="M361.4,272.9c-.95-2.53-2.42-4.95-2.68-7.49-.39-3.85,2.46-6.43,6.27-6.55s6.37,2.15,6.69,6.17a8.56,8.56,0,0,1-5.8,9.19c-6.31,2.49-13.51.58-16.62-4.41-3.65-5.83-2.51-15.74,3.17-20.12,3.69-2.85,8.31-4.65,12.72-6.38,7-2.77,14.4-4.73,21.34-7.72,5.34-2.29,6.5-7.94,3.17-12.32a9.35,9.35,0,0,0-9.33-3.8c.62.74,1,1.16,1.34,1.61,2.87,4,2.47,8.48-.94,10.71-2.92,1.9-7.3,1.19-9.2-1.51-2.45-3.48-1.21-8.89,2.58-11.29,6.62-4.2,16.53-.69,19.2,6.79a17.19,17.19,0,0,1-7.86,21.2,95.89,95.89,0,0,1-9.23,3.94h0c7.66,7.11,8.81,15.93,5.73,25.21-3.44,10.34-11.7,15.15-22,16.75A38,38,0,0,1,338,290.13c-9.23-4.19-14.26-11.39-14.51-21.68-.26-10.51,4.64-17.8,14-22.31.68-.33,1.37-.64,2.42-1.13h0l-3.31-2.5c-4.3-3.29-6.18-7.62-5.33-13,.83-5.17,4.22-8.22,8.92-9.89,5.44-1.93,11.12-2.57,16.06.79a15.12,15.12,0,0,1,5.16,7.38,5.53,5.53,0,0,1-3.79,7.29,8.77,8.77,0,0,1-6.81-1.36c-2.63-2.12-2.26-5.51-.65-8.34.84-1.47,2.3-2.58,3.48-3.86-5.41-3.14-11.46-1.17-13.92,4.76a19,19,0,0,0,.27,15.12c.83,2,1.92,3.2,4.3,2.37a3.9,3.9,0,0,1,2.56-.15,6.23,6.23,0,0,1,2.61,3,.23.23,0,0,1-.14.32c-1.67.41-1.89,1.41-3.46,1.25-1.84-.2-4.56-2-5.27-1.34-2.62,2.41-5.42,5.24-6.59,8.47C329.22,268.46,336.5,280,350.32,282c8,1.18,15.67.62,22.63-3.93,7.82-5.12,10-16.12,4.7-23.35-1.71-2.35-3.48-3.54-6.66-2.2-5.33,2.26-11,3.71-16.28,6.12-4.44,2-5.57,6.31-3.49,10.15S358.12,274.32,361.4,272.9Z"/><path class="cls-2" d="M761.4,272.9c-.95-2.53-2.42-4.95-2.68-7.49-.39-3.85,2.46-6.43,6.27-6.55s6.37,2.15,6.69,6.17a8.56,8.56,0,0,1-5.8,9.19c-6.31,2.49-13.51.58-16.62-4.41-3.65-5.83-2.51-15.74,3.17-20.12,3.69-2.85,8.31-4.65,12.72-6.38,7-2.77,14.4-4.73,21.34-7.72,5.34-2.29,6.5-7.94,3.17-12.32a9.35,9.35,0,0,0-9.33-3.8c.62.74,1,1.16,1.34,1.61,2.87,4,2.47,8.48-.94,10.71-2.92,1.9-7.3,1.19-9.2-1.51-2.45-3.48-1.21-8.89,2.58-11.29,6.62-4.2,16.53-.69,19.2,6.79a17.19,17.19,0,0,1-7.86,21.2,95.89,95.89,0,0,1-9.23,3.94h0c7.66,7.11,8.81,15.93,5.73,25.21-3.44,10.34-11.7,15.15-22,16.75A38,38,0,0,1,738,290.13c-9.23-4.19-14.26-11.39-14.51-21.68-.26-10.51,4.64-17.8,14-22.31.68-.33,1.37-.64,2.42-1.13h0l-3.31-2.5c-4.3-3.29-6.18-7.62-5.33-13,.83-5.17,4.22-8.22,8.92-9.89,5.44-1.93,11.12-2.57,16.06.79a15.12,15.12,0,0,1,5.16,7.38,5.53,5.53,0,0,1-3.79,7.29,8.77,8.77,0,0,1-6.81-1.36c-2.63-2.12-2.26-5.51-.65-8.34.84-1.47,2.3-2.58,3.48-3.86-5.41-3.14-11.46-1.17-13.92,4.76a19,19,0,0,0,.27,15.12c.83,2,1.92,3.2,4.3,2.37a3.9,3.9,0,0,1,2.56-.15,6.23,6.23,0,0,1,2.61,3,.23.23,0,0,1-.14.32c-1.67.41-1.89,1.41-3.46,1.25-1.84-.2-4.56-2-5.27-1.34-2.62,2.41-5.42,5.24-6.59,8.47C729.22,268.46,736.5,280,750.32,282c8,1.18,15.67.62,22.63-3.93,7.82-5.12,10-16.12,4.7-23.35-1.71-2.35-3.48-3.54-6.66-2.2-5.33,2.26-11,3.71-16.28,6.12-4.44,2-5.57,6.31-3.49,10.15S758.12,274.32,761.4,272.9Z"/></g></g></svg>