<svg xmlns="http://www.w3.org/2000/svg" viewBox="0 0 331.23 99.15"><defs><style>.cls-1{fill:#f6c478;}</style></defs><g id="Calque_2" data-name="Calque 2"><g id="Calque_1-2" data-name="Calque 1"><path class="cls-1" d="M209.79,13.9c-5.53,9.82-10.45,22.61-4.36,33.19,7.72,13.17,27.59,17.08,38.2,5.21C257.22,37,251.52,14.71,232.19,7.83a30.72,30.72,0,0,0-21.4-.19c-10.23,3.82-19,12.45-24.25,22.13-6.49,13.28,5.69,16.28,16.44,15.87,7.52-.31,15.06-2.45,22.73-4.63s15.44-4.17,23.22-6c13.47-3.14,75.79-17.47,82.08-3.71,1.15,4.2-2.46,7.78-5.07,10.58,3.74-4.27,8-11.15-.12-13.35-9.51-2.24-19.71-.45-29.29.83a459.21,459.21,0,0,0-46.46,10.19q-11.49,3.09-22.9,6.5c-7.59,2.29-15.47,4.75-23.91,5.26-11.51.79-26.39-3.11-24.17-17.64,1.16-6.61,5-12,9.25-17C196.45,7.27,208.57-.38,221.56,0c23.2.58,41.19,21.86,32.11,44.57-6.91,17.78-26.4,24-42.08,13-16-11.72-11.64-29.44-1.8-43.66Z"/><path class="cls-1" d="M88.83,15.52a4.11,4.11,0,0,1,1.29-2.73C87.43,31.62,78.78,49,75.67,67.67l-1.75,9.7-1.65-9.79c-1.68-11.77-5.16-22.74-8.59-34.09,29.4-17.48,66.89-21.71,98.92-9,4.73,1.92,9.59,5.08,10.73,10.58.88,4.16-1.36,8.59-4.58,10.94a26.24,26.24,0,0,1-9.4,4.29,181.2,181.2,0,0,1-18.37,4c-39.51,6.44-79.14,12.93-116,29C16.66,86.93,8.29,91.2,2.26,98.16l-.67-.93a65.32,65.32,0,0,0,16.05-8.17A64.33,64.33,0,0,1,0,99.15l1.34-1.74C7.13,89.89,15.53,85,23.92,81A257.21,257.21,0,0,1,49.67,70.15c29.17-10.51,59.9-16.06,90.3-21.44a175.52,175.52,0,0,0,17.77-4,20.87,20.87,0,0,0,7.36-3.3c4.17-3.21,2.66-7.56-2-10-5.21-2.7-11-4.27-16.64-5.73C120,19.42,91.55,23.9,67.69,36.75L68.85,34c1.37,5.42,2.91,10.76,4.2,16.33a162.19,162.19,0,0,1,2.64,16.77l-3.4-.1c1.06-4.65,2.28-9.27,3.79-13.79C80.64,39.75,86.74,26.93,89.9,13l.15.08a3.9,3.9,0,0,0-1.22,2.4Z"/><path class="cls-1" d="M170.54,60.84c-.47-4.14,2.54-7,6.59-6.8,1.14,4-2.55,7.59-6.59,6.8Z"/></g></g></svg>